<svg xmlns="http://www.w3.org/2000/svg" width="1280" height="380" viewBox="0 0 1280 380" fill="none"><g clip-path="url(#clip0_2650_2979)"><path d="M80.7943 383.831C77.512 388.113 74.6825 391.973 71.6572 395.688C67.8132 400.392 63.8686 405.018 59.8511 409.573C57.3856 412.364 54.1834 412.875 51.8341 411.129C49.3338 409.268 48.8942 405.963 51.1634 402.883C59.4854 391.556 67.9024 380.298 76.3447 369.059C77.36 367.7 78.6604 366.476 80.0481 365.469C84.5865 362.198 89.888 364.438 90.6957 369.907C92.8787 384.82 98.8885 398.518 104.497 412.339C104.59 412.565 104.817 412.738 105.262 413.269C111.189 404.159 120.073 397.458 124.817 387.001C121.033 386.94 117.584 386.981 114.142 386.801C111.517 386.665 108.756 386.703 106.316 385.892C99.5726 383.652 98.0817 376.036 103.499 371.473C113.077 363.387 121.662 354.463 128.434 343.903C129.166 342.769 130.079 341.742 130.99 340.728C134.917 336.414 139.998 336.618 143.01 341.676C145.635 346.093 147.681 350.87 149.69 355.612C155.595 369.512 161.358 383.47 167.508 398.178C174.538 390.085 181.192 382.421 187.891 374.715C181.065 370.444 174.613 366.404 168.167 362.372C167.238 361.79 166.263 361.264 165.418 360.591C161.81 357.74 161.472 353.373 164.848 350.264C170.32 345.21 176.001 340.375 181.534 335.376C183.89 333.245 186.062 330.913 188.334 328.694C191.346 325.743 194.697 325.504 197.756 328.421C199.492 330.084 201.069 332.103 202.115 334.249C210.296 351.107 218.332 368.037 226.398 384.959C227.83 387.976 229.133 391.053 230.508 394.095C231.892 397.13 231.279 400.152 228.367 402.928C224.166 406.945 219.669 410.669 215.577 414.793C202.774 427.674 190.036 440.632 177.415 453.692C174.982 456.21 173.15 459.31 171.104 462.182C170.161 463.505 169.444 465.001 168.482 466.312C164.046 472.392 157.621 473.01 152.471 467.48C145.638 460.132 139.831 452.03 136.177 442.603C135.789 441.603 135.392 440.608 134.778 439.062C131.943 441.523 129.268 443.65 126.899 446.066C126.446 446.523 126.98 448.218 127.402 449.196C135.095 466.87 142.936 484.493 150.503 502.215C152.333 506.513 153.513 511.122 154.552 515.683C155.057 517.889 154.899 520.403 154.392 522.635C153.515 526.516 149.729 528.219 146.326 526.082C144.194 524.744 142.105 522.704 141.006 520.498C137.673 513.771 134.835 506.811 131.782 499.946C124.651 483.901 117.616 467.803 110.318 451.833C107.983 446.72 108.524 442.344 111.688 437.853C116.023 431.696 122.311 428.04 128.622 424.382C130.667 423.201 132.835 422.202 135.052 421.363C140.37 419.348 144.654 421.462 146.507 426.812C147.691 430.232 148.828 433.672 150.227 436.997C152.319 441.984 155.639 446.141 159.474 449.861C159.803 449.738 160.045 449.72 160.129 449.593C168.197 437.572 179.835 429.111 190.473 419.624C199.157 411.881 207.637 403.926 216.095 395.937C216.754 395.32 217.02 393.572 216.635 392.701C214.333 387.494 211.795 382.385 209.313 377.25C203.715 365.675 198.11 354.106 192.504 342.537C192.156 341.81 191.749 341.121 191.072 339.857C186.283 344.757 181.728 349.43 177.02 354.252C178.041 355.168 178.646 355.844 179.365 356.349C184.954 360.244 190.528 364.15 196.189 367.936C198.753 369.66 199.483 372.232 197.636 374.935C195.645 377.854 193.495 380.663 191.395 383.511C185.314 391.752 179.208 399.974 173.141 408.218C170.95 411.199 168.742 414.226 164.443 413.837C160.002 413.434 158.374 409.985 156.902 406.48C150.014 390.045 143.12 373.602 136.216 357.178C135.875 356.374 135.462 355.605 134.959 354.561C130.675 360.168 126.633 365.471 122.407 371.004C124.593 371.564 126.652 371.92 128.585 372.625C131.484 373.682 134.505 374.634 137.085 376.238C140.878 378.594 141.603 382.8 139.057 386.4C133.111 394.84 127.011 403.178 121.006 411.584C118.371 415.267 115.742 418.959 113.266 422.751C108.399 430.246 100.741 430.209 96.9949 422.126C91.7444 410.812 87.1731 399.178 82.3291 387.678C81.8538 386.639 81.4619 385.545 80.7943 383.831Z" fill="#FFD910"></path><path d="M55.8435 231.622C58.9913 237.201 62.1391 242.78 65.2786 248.364C65.4134 248.598 65.512 248.868 65.6828 249.067C66.907 250.494 68.6998 251.831 67.3696 253.975C65.9119 256.323 63.6647 257.866 60.8538 257.902C55.299 257.964 49.6998 258.104 44.179 257.593C27.7254 256.057 11.3152 254.193 -5.11935 252.525C-10.8356 251.94 -16.5735 251.537 -22.3088 251.084C-31.4054 250.373 -35.0043 247.109 -35.4633 238.086C-36.1154 225.284 -36.6394 212.456 -36.6446 199.643C-36.6439 195.543 -35.4002 191.203 -33.7251 187.391C-30.9527 181.074 -25.2786 177.995 -18.5292 178.193C-13.7098 178.332 -8.65319 179.248 -4.19553 181.031C1.5916 183.343 7.19771 186.424 12.3509 189.926C29.1859 201.35 43.9575 214.963 55.8435 231.622ZM-20.2527 232.656C2.9083 232.918 24.8019 237.86 46.5743 243.926C46.0622 242.744 45.4677 241.869 44.7341 241.11C39.7835 235.927 34.8524 230.719 29.8074 225.611C20.7588 216.464 11.005 208.133 -0.535295 202.203C-4.86918 199.978 -9.58548 198.368 -14.284 197.033C-18.1255 195.944 -22.368 199.989 -22.1322 203.993C-21.6544 212.115 -21.146 220.23 -20.6459 228.349C-20.5512 229.773 -20.3895 231.188 -20.2527 232.656Z" fill="#3DFFA2"></path><path d="M120.251 236.494C113.144 230.455 105.818 224.79 99.1815 218.427C92.528 212.038 86.5717 204.947 80.111 197.951C79.8515 198.639 79.6441 199.101 79.5149 199.57C77.2972 207.987 70.7014 212.135 62.0685 210.217C55.088 208.662 48.7229 205.463 43.4898 200.756C37.0281 194.935 31.2134 188.409 25.0211 182.289C19.7917 177.124 14.4096 172.108 9.10807 167.014C7.86528 165.827 6.51396 164.712 5.48525 163.358C3.99972 161.421 3.73177 159.189 4.89441 156.977C6.04597 154.784 8.0844 153.344 10.4507 153.724C13.2495 154.188 16.4088 154.844 18.5403 156.52C24.3865 161.095 30.0581 165.966 35.2655 171.242C42.3376 178.407 48.6069 186.369 56.9678 192.221C59.5711 194.038 62.3325 195.642 65.0965 197.196C67.0194 198.279 68.3164 197.62 68.3522 195.354C68.4033 191.292 68.3958 187.233 68.288 183.168C68.1955 179.465 67.9185 175.633 72.3101 174.054C76.6071 172.515 79.17 175.414 81.5291 178.244C91.7976 190.596 101.955 203.034 112.273 215.352C117.782 221.927 124.378 227.358 131.636 231.977C134.968 234.101 135.483 237.355 132.388 240.361C127.773 244.858 122.915 249.12 118.119 253.438C109.057 261.589 99.9918 269.753 92.7209 279.577C89.9885 283.277 87.6141 287.291 85.5022 291.369C82.762 296.645 81.9197 302.36 82.927 308.248C83.7889 313.298 84.8011 318.32 85.5737 323.381C85.6595 323.935 84.5492 325.261 84.1112 325.205C82.3424 324.991 80.4588 324.697 78.9274 323.869C74.4058 321.422 71.5876 317.398 69.679 312.805C68.4658 309.896 67.595 306.83 66.7493 303.784C63.9349 293.595 65.878 284.114 72.934 276.399C79.5819 269.135 86.957 262.442 94.537 256.105C102.481 249.466 111.036 243.547 119.322 237.303C119.795 236.929 120.239 236.513 120.251 236.494Z" fill="white"></path><path d="M138.049 309.814C135.236 313.627 131.744 316.441 126.638 316.433C120.879 316.427 116.039 314.384 113.074 309.271C109.604 303.271 109.345 296.897 111.59 290.428C114.491 282.036 120.031 275.425 126.792 269.933C133.344 264.615 140.398 259.91 147.213 254.909C149.196 253.458 151.184 252.016 153.038 250.411C157.516 246.533 158.544 242.001 155.768 236.809C154.521 234.474 152.33 232.658 150.821 230.437C149.98 229.198 148.91 227.356 149.302 226.256C149.81 224.827 151.485 223.317 152.992 222.842C156.117 221.842 158.865 223.408 161.259 225.363C171.001 233.354 172.934 248.577 165.145 258.638C162.517 262.029 159.138 264.936 155.791 267.678C147.638 274.349 139.207 280.665 131.096 287.379C128.694 289.373 126.912 292.117 125.011 294.652C124.215 295.709 123.743 297.066 123.361 298.34C121.346 305.075 124.647 309.365 131.775 309.263C133.802 309.234 135.82 309.03 137.844 308.907C137.907 309.213 137.978 309.513 138.049 309.814Z" fill="#FD28E8"></path><path d="M32.4898 158.185C21.5395 141.923 26.143 120.253 42.0836 110.368C45.9979 107.944 50.2881 106.841 54.8833 107.417C59.5622 108.009 62.4943 111.166 62.9105 115.648C63.0967 117.635 62.5009 118.63 60.3296 118.181C56.8912 117.471 54.2779 118.813 52.2078 121.437C44.9624 130.657 41.3027 140.465 50.0808 153.209C51.054 154.624 51.8854 156.133 52.7083 157.647C54.0761 160.143 54.8644 162.783 52.9555 165.288C50.8969 168 47.9034 168.373 44.7855 167.618C38.9851 166.213 35.4298 161.96 32.4898 158.185Z" fill="#FFD910"></path><path d="M41.6846 342.505C37.1597 334.917 34.4136 326.505 34.824 317.3C34.9238 315.004 35.5673 312.669 36.3341 310.481C37.6662 306.681 41.3398 306.204 44.598 305.739C47.3573 305.342 48.775 307.768 49.8177 309.855C53.6064 317.466 57.2197 325.157 60.9445 332.798C61.8918 334.746 62.9171 336.665 64.0342 338.524C65.3927 340.773 67.377 341.875 70.1286 341.663C72.0717 341.51 72.3094 343.09 72.2645 344.451C72.1834 347.274 70.4 349.072 68.0934 350.403C59.5987 355.322 50.8638 353.699 44.3642 346.022C43.4929 344.971 42.7077 343.851 41.6846 342.505Z" fill="#FD28E8"></path><path d="M10.3071 292.534C10.5231 290.712 10.6693 288.876 10.9551 287.067C11.3958 284.22 11.5404 281.259 12.5033 278.592C14.0015 274.466 18.7835 272.892 21.8099 275.938C26.9304 281.068 32.6252 281.14 38.9329 279.654C39.1614 279.597 39.4465 279.767 39.695 279.83C39.54 285.88 30.947 289.906 21.4785 288.219C21.3232 289.15 21.2349 290.108 20.9819 291.02C20.2913 293.445 19.8439 295.997 18.7427 298.228C16.2025 303.335 11.0014 304.721 6.38684 301.316C3.8894 299.477 1.84656 296.915 -0.039985 294.406C-1.66302 292.248 -2.81059 289.738 -4.10545 287.351C-5.09699 285.517 -5.24942 283.616 -3.40873 282.223C-1.60142 280.853 0.349677 281.318 1.82491 282.758C3.4345 284.325 4.79419 286.166 6.16207 287.966C7.33375 289.512 8.36647 291.175 9.46031 292.785C9.74718 292.69 10.0313 292.609 10.3071 292.534Z" fill="#FD28E8"></path><path d="M1111.54 -129.619C1106.13 -114.593 1101.05 -99.4475 1099.79 -83.4255C1098.71 -69.5062 1101.54 -56.3532 1109.12 -44.375C1112.26 -39.4202 1116.08 -35.0699 1120.59 -31.2815C1134.82 -19.2863 1151.39 -12.084 1169.36 -7.53791C1187.58 -2.9237 1206.17 -0.514462 1224.77 1.85224C1246.17 4.57649 1267.56 7.36037 1288.38 13.2601C1300.62 16.725 1312.34 21.3307 1323.1 28.1584C1330.92 33.1301 1337.76 39.1575 1343.53 46.4109C1352.32 57.4526 1355.7 70.0693 1355.24 83.9119C1354.81 96.5287 1351.14 108.251 1345.42 119.412C1336.98 135.886 1325.47 149.882 1310.57 161.042C1286.54 179.04 1259.85 191.128 1229.99 195.913C1217.66 197.888 1205.23 198.807 1192.98 195.623C1188.51 194.466 1184.05 192.618 1180.15 190.183C1171.48 184.769 1168.5 175.873 1171.44 166.133C1174.28 156.692 1180.27 149.362 1187.52 142.892C1188.45 142.066 1189.35 141.164 1190.4 140.517C1191.03 140.125 1192.04 139.853 1192.67 140.083C1193.14 140.253 1193.63 141.377 1193.52 141.973C1192.97 144.918 1192.45 147.898 1191.49 150.724C1189.78 155.773 1187.46 160.634 1185.93 165.733C1183.14 175.14 1185.49 179.125 1195.03 182.036C1201.39 183.977 1207.96 184.301 1214.53 183.909C1253.23 181.602 1286.28 166.397 1314.09 140.091C1326.87 128.002 1335.96 113.3 1340.56 96.1881C1342.66 88.3899 1342.99 80.4726 1341.79 72.4956C1340.77 65.6595 1337.78 59.7087 1333.63 54.2431C1325.64 43.7462 1315.24 36.2375 1303.45 30.4995C1288.44 23.1951 1272.42 18.9895 1256.05 16.2738C1235.48 12.8514 1214.79 10.0931 1194.17 6.96021C1176.75 4.31258 1159.58 0.626346 1143.24 -6.09916C1132.78 -10.3984 1123.18 -16.1789 1114.37 -23.2194C1099.29 -35.2828 1091.81 -51.2878 1089.91 -70.1107C1088.47 -84.3449 1091.22 -98.1535 1094.37 -111.911C1095.58 -117.181 1097.13 -122.382 1098.52 -127.618C1098.69 -128.274 1098.75 -128.963 1098.86 -129.636C1103.09 -129.619 1107.31 -129.619 1111.54 -129.619Z" fill="#FFD910"></path><path d="M1319.32 -129.619C1318.95 -125.337 1319.04 -120.952 1318.12 -116.789C1315.05 -102.742 1311.4 -88.823 1308.39 -74.7675C1303.89 -53.7227 1300.5 -32.5075 1299.18 -11.0029C1299.13 -10.1175 1299.46 -9.21514 1299.57 -8.31273C1299.7 -7.25708 1300.03 -6.15032 1299.84 -5.13724C1298.86 0.158036 1291.53 3.91238 1286.64 1.64784C1284.8 0.805021 1283.04 -0.225057 1281.3 -1.24665C1271.08 -7.24853 1259.77 -9.77699 1248.24 -11.735C1241.4 -12.9014 1234.61 -14.3997 1227.8 -15.8214C1224.5 -16.511 1222.66 -18.3584 1222.31 -21.0656C1221.98 -23.6707 1223.39 -26.0033 1226.33 -27.5357C1229.09 -28.9745 1231.89 -30.3707 1234.68 -31.7583C1245.42 -37.0877 1254.66 -44.3921 1263.06 -52.8117C1263.32 -53.0671 1263.52 -53.3736 1264.08 -54.0462C1262.94 -54.0462 1262.21 -54.0632 1261.48 -54.0462C1254.84 -53.8674 1248.2 -53.6801 1241.56 -53.5183C1240.47 -53.4928 1239.37 -53.4758 1238.28 -53.612C1235.78 -53.927 1233.83 -55.0848 1232.99 -57.5707C1232.16 -60.0395 1232.92 -62.2104 1234.78 -63.8961C1236.33 -65.3007 1238.07 -66.5011 1239.8 -67.693C1244.75 -71.1239 1249.33 -74.9634 1252.98 -79.7734C1253.71 -80.7354 1254.34 -81.7825 1255.45 -83.4511C1252.35 -82.9062 1249.83 -82.8211 1247.56 -82.0123C1239.8 -79.22 1232.1 -76.2233 1224.42 -73.1926C1222.03 -72.2476 1220.17 -70.6215 1219.42 -68.0165C1219.23 -67.3609 1218.8 -66.765 1218.42 -66.1861C1215.97 -62.4914 1211.66 -61.0611 1207.79 -62.6276C1204.03 -64.1515 1201.87 -68.0931 1202.98 -72.3668C1204.59 -78.6496 1206.2 -84.9665 1208.44 -91.045C1212.88 -103.1 1217.75 -115.001 1222.42 -126.971C1222.75 -127.822 1222.91 -128.733 1223.15 -129.619C1228.47 -129.619 1233.78 -129.619 1239.1 -129.619C1234.82 -115.291 1230.56 -100.963 1226.29 -86.6521C1230.64 -88.0227 1235.1 -89.7594 1239.72 -90.7895C1245.71 -92.1261 1251.81 -93.5649 1257.89 -93.7607C1265.92 -94.0161 1269.49 -88.0823 1266.48 -80.6843C1264.35 -75.4315 1260.93 -71.0302 1256.9 -67.08C1256.21 -66.399 1255.32 -65.9137 1254.53 -65.3348C1254.72 -65.0794 1254.91 -64.8155 1255.1 -64.5601C1258.26 -64.8495 1261.41 -65.2412 1264.58 -65.3944C1268.31 -65.5732 1272.11 -65.9137 1275.79 -65.4966C1282.16 -64.7729 1284.69 -58.9158 1281.21 -53.6205C1280.74 -52.9139 1280.25 -52.1988 1279.66 -51.5858C1270.17 -41.7104 1260.48 -32.0733 1248.48 -25.0839C1247.93 -24.7604 1247.42 -24.3603 1246.35 -23.6282C1259.98 -21.7723 1272.86 -19.5332 1284.76 -13.4462C1285.12 -18.0519 1285.23 -22.2915 1285.79 -26.463C1288.86 -49.2702 1294.06 -71.6261 1300.79 -93.6245C1304.47 -105.662 1308.43 -117.623 1312.26 -129.61C1314.63 -129.619 1316.97 -129.619 1319.32 -129.619Z" fill="white"></path><path d="M1130.02 102.744C1126.22 102.744 1122.88 102.667 1119.53 102.812C1118.9 102.838 1117.89 103.714 1117.78 104.319C1116.08 113.675 1114.44 123.04 1112.92 132.43C1112.22 136.78 1110.3 139.343 1107.15 139.573C1103.97 139.802 1101.41 137.393 1100.52 132.975C1099.35 127.177 1100.13 121.397 1101.33 115.71C1102.38 110.798 1103.69 105.936 1105.02 101.084C1105.44 99.5429 1106.13 98.002 1107.01 96.6654C1108.88 93.839 1111.92 93.2005 1115.05 94.5371C1116.13 95.0053 1117.44 95.2267 1118.63 95.1671C1136.4 94.3499 1153.94 92.0598 1171.13 87.2753C1174.12 86.441 1177.51 86.1941 1180.57 86.6368C1185.8 87.386 1187.27 92.0768 1183.94 96.1802C1181.79 98.8364 1178.89 100.505 1175.62 101.041C1168.62 102.191 1161.58 103.11 1154.52 103.825C1150.99 104.183 1147.38 103.885 1143.78 103.885C1143.44 109.776 1143.13 115.454 1142.8 121.32C1143.64 121.32 1144.55 121.414 1145.44 121.303C1160.42 119.541 1175.4 117.787 1190.36 115.923C1191.72 115.752 1193.19 115.088 1194.28 114.245C1199.55 110.193 1205.25 107.12 1211.91 106.064C1223.23 104.268 1229.96 108.814 1232.4 119.864C1232.49 120.307 1232.59 120.758 1232.74 121.482C1233.93 121.226 1235.04 121.014 1236.13 120.758C1243.6 119.004 1251.08 117.353 1258.84 118.57C1259.31 118.647 1259.77 118.681 1260.24 118.766C1273.36 121.209 1278.71 132.251 1272.44 143.948C1270.01 148.494 1266.35 151.747 1261.7 153.934C1256.28 156.48 1250.54 158.072 1244.57 158.412C1242.09 158.557 1239.4 158.012 1237.09 157.093C1235.52 156.471 1234.04 154.854 1233.22 153.322C1231.82 150.674 1233.66 148.188 1236.64 148.46C1243.41 149.082 1249.33 146.817 1254.59 142.986C1256.63 141.505 1258.26 139.206 1259.48 136.967C1260.83 134.49 1260.1 133.06 1257.37 132.149C1254.72 131.264 1251.96 130.293 1249.22 130.199C1244.01 130.012 1238.79 130.336 1233.58 130.668C1232.63 130.727 1231.5 131.647 1230.87 132.481C1229.36 134.473 1227.62 136.022 1225.1 136.559C1222.44 137.121 1219.76 136.108 1218.28 133.988C1216.77 131.825 1216.71 129.084 1218.48 126.837C1220.74 123.951 1220.61 120.826 1219.84 117.574C1219.29 115.284 1217.64 113.905 1215.4 114.399C1212.71 114.986 1209.82 115.761 1207.68 117.327C1204.78 119.447 1202.35 122.273 1200.01 125.032C1198.36 126.981 1196.7 128.318 1194 128.497C1182.63 129.254 1171.26 130.055 1159.9 131.017C1154.38 131.485 1148.9 132.455 1143.38 132.924C1141.25 133.102 1140.69 133.937 1140.42 135.844C1139.53 141.888 1138.47 147.907 1137.41 153.926C1137.22 155.058 1136.85 156.19 1136.35 157.221C1134.93 160.175 1132.1 161.809 1128.98 161.605C1125.79 161.392 1122.99 159.315 1122.2 156.097C1121.69 154.028 1121.52 151.806 1121.61 149.669C1122.23 134.524 1125.08 119.737 1129.31 105.196C1129.49 104.625 1129.65 104.046 1130.02 102.744Z" fill="#3DFFA2"></path><path d="M1257.63 69.3883C1259.58 67.3026 1261.27 65.2679 1263.2 63.4886C1265.02 61.82 1266.95 60.1514 1269.1 58.9681C1274.94 55.7586 1281.35 57.2314 1285.66 62.4926C1288.64 66.1363 1289.87 70.5291 1291.17 74.922C1291.96 77.5696 1292.93 80.1747 1294.01 82.7117C1295.12 85.3167 1295.53 87.9218 1294.54 90.595C1292.22 96.7501 1284.24 98.4867 1279.58 93.4724C1277.41 91.1313 1276.21 87.8367 1274.87 84.84C1274.04 82.9841 1273.78 80.8728 1273.26 78.8807C1272.99 78.6849 1272.72 78.4976 1272.45 78.3018C1271.91 79.1361 1271.51 80.1406 1270.79 80.7791C1267.99 83.2224 1265.32 85.9467 1262.16 87.8281C1254.67 92.2891 1247.07 89.5563 1243.86 81.5283C1242.92 79.1786 1242.34 76.6842 1241.49 73.9174C1240.6 74.5559 1239.74 75.0241 1239.07 75.6882C1236.02 78.6849 1233.05 81.7581 1230 84.7463C1221.4 93.1574 1214.92 92.9531 1206.72 84.1589C1203.23 80.4131 1199.64 76.7438 1196.01 73.1257C1194.75 71.8742 1193.21 70.9122 1191.86 69.7544C1191.26 69.2351 1190.25 68.4093 1190.38 68.0007C1190.6 67.277 1191.43 66.5278 1192.19 66.1873C1196.6 64.2207 1201.09 64.374 1205.29 66.613C1209.4 68.8094 1213.39 71.2783 1217.23 73.9004C1218.82 74.9901 1219.61 74.922 1220.88 73.6024C1223.89 70.4695 1226.91 67.3026 1230.22 64.4932C1232.68 62.3989 1235.43 60.4749 1238.35 59.1128C1244.35 56.3204 1250.19 58.0231 1254.06 63.3609C1255.36 65.1572 1256.34 67.1834 1257.63 69.3883Z" fill="white"></path><path d="M1101.37 19.0662C1103.96 17.2188 1106.56 15.414 1109.1 13.5326C1112.89 10.7317 1116.78 8.20326 1121.63 7.57328C1131.98 6.22818 1141.47 14.9288 1140.84 25.2213C1140.67 27.9967 1139.24 29.9548 1136.87 30.6699C1134.49 31.3935 1131.86 30.4741 1130.36 28.1584C1129.44 26.7367 1128.84 25.1192 1128.02 23.6294C1126.36 20.5901 1124.01 19.8154 1121.01 21.5862C1118.81 22.8802 1116.87 24.6169 1114.72 26.0216C1111.21 28.3032 1107.8 30.8742 1104.02 32.6024C1097.33 35.6586 1091.74 33.4708 1088.37 26.9581C1087.3 24.9064 1086.47 22.7354 1085.38 20.2751C1084.65 20.9051 1084.05 21.4244 1083.45 21.9437C1080.69 24.336 1078.11 26.9836 1075.14 29.0694C1068.32 33.8283 1061.59 32.3555 1057.07 25.4256C1054.81 21.9437 1053.78 21.782 1050.59 24.5914C1048.95 26.0301 1047.5 27.6732 1045.85 29.0779C1041.51 32.7556 1036.46 32.7641 1032.32 28.8565C1026.96 23.7826 1023.19 17.7041 1021.64 10.4337C1021.12 8.03297 1021.78 7.39448 1024.17 7.99041C1029.42 9.30146 1033.56 12.3833 1037.3 16.1291C1039.73 18.5639 1039.69 18.3681 1042.59 16.6144C1045.77 14.6904 1049 12.7238 1052.45 11.4043C1057.25 9.5739 1062.04 10.4082 1066.34 13.192C1067.79 14.137 1068.73 14.0263 1070.03 13.0303C1072.81 10.9105 1075.62 8.7992 1078.59 6.9433C1085.57 2.56746 1091.45 3.6912 1096.25 10.3827C1098.11 13.0048 1099.54 15.9333 1101.37 19.0662Z" fill="white"></path><path d="M1157.6 45.5768C1155.85 47.5178 1154.46 49.2886 1152.83 50.821C1149.72 53.741 1146.69 56.7973 1143.25 59.2832C1138.67 62.5949 1134.1 61.7861 1130.33 57.589C1129.96 57.1889 1129.62 56.7632 1129.28 56.3376C1126.18 52.464 1124.53 51.9022 1119.82 53.6985C1117.36 54.6349 1115.05 55.98 1112.7 57.1889C1109.76 58.6957 1106.79 59.3939 1103.82 57.4443C1100.85 55.4948 1100.09 52.413 1100.63 49.2545C1101.08 46.5643 1102.23 43.9677 1103.22 41.3882C1103.71 40.1197 1104.82 39.8814 1105.84 40.8519C1107.18 42.1203 1108.41 43.5251 1109.9 45.0915C1110.67 44.6914 1111.6 44.1891 1112.53 43.7039C1116.96 41.3968 1121.59 39.9325 1126.69 40.4518C1132.51 41.0392 1136.7 44.0529 1139.72 49.3567C1141.22 47.9094 1142.59 46.7005 1143.82 45.364C1146.34 42.6142 1148.64 39.6685 1151.27 37.0294C1156.51 31.7852 1162.53 31.8108 1167.7 37.1231C1169.79 39.277 1171.57 41.7799 1173.29 44.2487C1174.41 45.8492 1175.35 45.9088 1176.88 44.8361C1179.94 42.6908 1182.96 40.4177 1186.26 38.698C1190.1 36.7059 1194.1 34.7649 1198.26 33.6752C1205.26 31.8533 1211.84 34.7819 1214.98 41.201C1217.06 45.4576 1218.42 50.1399 1219.51 54.7712C1220.46 58.7724 1216.01 61.9478 1212.19 60.0153C1210.38 59.1044 1208.89 57.257 1207.7 55.5373C1206.3 53.5112 1205.41 51.153 1204.26 48.9651C1203.29 47.1347 1201.75 46.5984 1199.96 47.637C1197.34 49.1524 1194.76 50.7699 1192.27 52.4811C1188.88 54.8137 1185.74 57.555 1182.2 59.6407C1173.73 64.6465 1166.53 62.6289 1161.74 54.0816C1160.25 51.468 1159.09 48.6671 1157.6 45.5768Z" fill="#FD28E8"></path><path d="M1044.46 78.6679C1044.46 76.2161 1044.31 72.8023 1044.52 69.414C1044.63 67.524 1045 65.5148 1045.83 63.8377C1047.97 59.4704 1053.56 58.236 1057.36 61.454C1061.16 64.6891 1065.42 66.9366 1069.99 68.8435C1075.5 71.1506 1076.95 75.867 1073.53 80.677C1071.58 83.4183 1069.19 85.8786 1066.85 88.3134C1064.32 90.9355 1061.59 93.3704 1058.97 95.9073C1056.74 98.0697 1054.69 100.581 1050.94 99.1679C1045.96 97.295 1043.71 94.6048 1043.79 90.0246C1043.83 86.5597 1044.18 83.0948 1044.46 78.6679Z" fill="#FD28E8"></path></g><defs><clipPath id="clip0_2650_2979"><rect width="1280" height="380" fill="white"></rect></clipPath></defs></svg>